<svg width="70" height="64" viewBox="0 0 70 64" fill="none" xmlns="http://www.w3.org/2000/svg">
  <defs>
    <linearGradient id="g0" x1="59.0083" y1="29.8418" x2="28.5315" y2="63.3001" gradientUnits="userSpaceOnUse">
      <stop stop-color="#FF644C"/>
      <stop offset="0.32" stop-color="#FF604E"/>
      <stop offset="0.64" stop-color="#FD5454"/>
      <stop offset="0.95" stop-color="#FB415F"/>
      <stop offset="1" stop-color="#FB3D61"/>
    </linearGradient>
    <linearGradient id="g1" x1="-6.2688" y1="60.0729" x2="41.0843" y2="-14.5025" gradientUnits="userSpaceOnUse">
      <stop stop-color="#FFC65E"/>
      <stop offset="0.19" stop-color="#FEB762"/>
      <stop offset="0.54" stop-color="#FD906E"/>
      <stop offset="1" stop-color="#FB557F"/>
    </linearGradient>
    <linearGradient id="g2" x1="-6.91541" y1="9.51869" x2="28.3465" y2="20.5058" gradientUnits="userSpaceOnUse">
      <stop stop-color="#FF644C"/>
      <stop offset="0.32" stop-color="#FF604E"/>
      <stop offset="0.64" stop-color="#FD5454"/>
      <stop offset="0.95" stop-color="#FB415F"/>
      <stop offset="1" stop-color="#FB3D61"/>
    </linearGradient>
  </defs>
  <!-- Frame arms (gradient) -->
  <path d="M20.7874 46.5682L28.4389 60.079C29.1157 61.2712 30.089 62.2612 31.2611 62.9495C32.4332 63.6378 33.7627 64.0001 35.1161 64.0001C36.4694 64.0001 37.799 63.6378 38.971 62.9495C40.1431 62.2612 41.1165 61.2712 41.7932 60.079L58.4435 30.7074L20.7874 46.5682Z" fill="url(#g0)"/>
  <path d="M69.1901 11.7689C69.8675 10.5768 70.2245 9.22428 70.2251 7.84732C70.2258 6.47036 69.8701 5.11749 69.1938 3.92471C68.5175 2.73193 67.5444 1.74128 66.3724 1.05234C65.2004 0.363404 63.8708 0.000461403 62.5172 0C61.166 0.00305884 59.8285 0.275076 58.5801 0.800715L7.11133 22.4692L20.7874 46.5682L58.4413 30.7073L69.1901 11.7689Z" fill="url(#g1)"/>
  <path d="M35.1127 10.6808L11.6729 0.800754C10.4242 0.275023 9.08644 0.00300395 7.73504 3.95518e-05C6.37913 -0.00434009 5.04607 0.355077 3.87029 1.04204C2.69452 1.729 1.71761 2.71922 1.03811 3.91281C0.358603 5.10641 0.000529 6.46118 5.85689e-07 7.84047C-0.000527828 9.21977 0.356508 10.5748 1.0351 11.769L7.11159 22.4497L36.5895 10.0336L35.1127 10.6808Z" fill="url(#g2)"/>
  <!-- Bridge between lenses -->
  <path d="M39.8968 29.5196H29.7778C29.2157 29.5196 28.6766 29.2925 28.2792 28.8881C27.8817 28.4838 27.6584 27.9354 27.6584 27.3636C27.6584 26.7918 27.8817 26.2434 28.2792 25.8391C28.6766 25.4348 29.2157 25.2076 29.7778 25.2076H39.8968C40.4589 25.2076 40.998 25.4348 41.3955 25.8391C41.7929 26.2434 42.0162 26.7918 42.0162 27.3636C42.0162 27.9354 41.7929 28.4838 41.3955 28.8881C40.998 29.2925 40.4589 29.5196 39.8968 29.5196Z" fill="#001960"/>
  <!-- Right lens -->
  <path d="M52.5417 38.9313C58.8225 38.9313 63.914 33.7519 63.914 27.3629C63.914 20.9739 58.8225 15.7945 52.5417 15.7945C46.261 15.7945 41.1695 20.9739 41.1695 27.3629C41.1695 33.7519 46.261 38.9313 52.5417 38.9313Z" fill="#B6F0FF"/>
  <path d="M56.2464 16.4713C54.7831 15.263 53.1491 15.7771 51.8339 18.0264V36.7947C53.1462 39.0246 54.7931 39.5386 56.2571 38.3303L56.2464 16.4713Z" fill="white"/>
  <path d="M57.2544 16.8818V37.9162C58.0909 37.5277 58.8777 37.0369 59.5973 36.4545V18.3435C58.8777 17.7611 58.0909 17.2703 57.2544 16.8818Z" fill="white"/>
  <path d="M52.5437 41.0806C49.8743 41.0819 47.2646 40.2776 45.0447 38.7697C42.8249 37.2617 41.0946 35.1177 40.0729 32.6091C39.0513 30.1005 38.7841 27.34 39.3052 24.6769C39.8263 22.0137 41.1123 19.5677 43.0005 17.6483C44.8887 15.7289 47.2941 14.4224 49.9124 13.8941C52.5308 13.3658 55.2443 13.6395 57.7097 14.6805C60.1751 15.7215 62.2815 17.4831 63.7624 19.7423C65.2433 22.0015 66.0321 24.6568 66.029 27.3721C66.0248 31.0082 64.6024 34.4939 62.0741 37.0641C59.5457 39.6343 56.1181 41.0789 52.5437 41.0806ZM52.5437 17.9503C50.7139 17.9491 48.9249 18.4997 47.4028 19.5326C45.8807 20.5656 44.6938 22.0344 43.9923 23.7535C43.2907 25.4725 43.106 27.3646 43.4615 29.1904C43.8169 31.0162 44.6966 32.6939 45.9893 34.0112C47.282 35.3285 48.9296 36.2263 50.7238 36.5911C52.5181 36.9559 54.3784 36.7714 56.0695 36.0608C57.7607 35.3502 59.2067 34.1454 60.2248 32.5989C61.243 31.0523 61.7874 29.2334 61.7894 27.3721C61.7907 26.1359 61.5526 24.9115 61.0886 23.7688C60.6246 22.6262 59.9439 21.5878 59.0853 20.7128C58.2267 19.8379 57.2071 19.1436 56.0847 18.6696C54.9622 18.1956 53.759 17.9512 52.5437 17.9503Z" fill="#001960"/>
  <!-- Left lens -->
  <path d="M17.6901 38.9313C23.9708 38.9313 29.0623 33.7519 29.0623 27.3629C29.0623 20.9739 23.9708 15.7945 17.6901 15.7945C11.4093 15.7945 6.31781 20.9739 6.31781 27.3629C6.31781 33.7519 11.4093 38.9313 17.6901 38.9313Z" fill="#B6F0FF"/>
  <path d="M21.1948 16.4709C20.0333 15.2626 18.721 15.8034 17.6904 18.0064V36.795C18.721 39.0248 20.0333 39.5388 21.1948 38.3305V16.4709Z" fill="white"/>
  <path d="M22.199 16.8818V37.9162C23.0362 37.529 23.8231 37.0381 24.5419 36.4545V18.3435C23.8231 17.7599 23.0362 17.269 22.199 16.8818Z" fill="white"/>
  <path d="M17.7089 41.0806C15.0387 41.0857 12.4271 40.2848 10.2047 38.7792C7.98232 37.2735 6.24908 35.1309 5.22445 32.6227C4.19983 30.1144 3.92991 27.3533 4.44886 24.6888C4.96781 22.0244 6.2523 19.5766 8.13969 17.6552C10.0271 15.7338 12.4325 14.4254 15.0514 13.8955C17.6702 13.3656 20.3848 13.6382 22.8513 14.6786C25.3178 15.7191 27.4253 17.4806 28.907 19.7402C30.3888 21.9998 31.1781 24.6559 31.175 27.3721C31.1708 31.0048 29.7511 34.4876 27.2269 37.0572C24.7027 39.6268 21.28 41.0737 17.7089 41.0806ZM17.7089 17.9503C15.8784 17.9452 14.0874 18.4925 12.5628 19.5231C11.0381 20.5537 9.84829 22.0212 9.1438 23.7399C8.4393 25.4586 8.25184 27.3512 8.60513 29.1783C8.95842 31.0055 9.83658 32.6849 11.1285 34.0042C12.4204 35.3234 14.068 36.2232 15.8627 36.5896C17.6575 36.956 19.5188 36.7726 21.2111 36.0626C22.9033 35.3526 24.3505 34.1478 25.3695 32.6009C26.3885 31.0539 26.9334 29.2342 26.9354 27.3721C26.9373 24.8792 25.9669 22.4874 24.2371 20.7216C22.5073 18.9557 20.1595 17.9601 17.7089 17.9532V17.9503Z" fill="#001960"/>
  <!-- Nose bridge -->
  <path d="M35.1118 44.3655C33.958 44.3682 32.8151 44.1391 31.7486 43.6912C30.6821 43.2433 29.7131 42.5855 28.8972 41.7556C28.548 41.3434 28.3648 40.812 28.3846 40.2682C28.4044 39.7244 28.6257 39.2083 29.004 38.8235C29.3822 38.4386 29.8896 38.2136 30.4242 38.1935C30.9588 38.1733 31.4812 38.3596 31.8864 38.7149C32.7456 39.5753 33.9029 40.0575 35.1086 40.0575C36.3143 40.0575 37.4716 39.5753 38.3308 38.7149C38.7331 38.3407 39.2617 38.1386 39.8066 38.1505C40.3516 38.1624 40.8711 38.3875 41.2572 38.7789C41.6433 39.1704 41.8663 39.6981 41.8799 40.2525C41.8934 40.8068 41.6964 41.3451 41.3299 41.7556C40.5128 42.5847 39.543 43.242 38.4761 43.6898C37.4092 44.1376 36.266 44.3672 35.1118 44.3655Z" fill="#001960"/>
</svg>
